<svg enable-background="new 0 0 24 24" height="24px" viewBox="0 0 24 24" width="24px">
   <g>
      <path
         d="m 3.6484375,18.210937 c -1.5531007,0 -3,1.092156 -3,2.658204 0,1.566047 1.4468993,2.658203 3,2.658203 H 20.351562 c 1.553101,0 3.000001,-1.092156 3,-2.658203 0,-1.566048 -1.446899,-2.658204 -3,-2.658204 l -2.799562,2 h 2.799562 c 0.662898,0 1,0.386465 1,0.658204 0,0.271739 -0.337102,0.658203 -1,0.658203 H 3.6484375 c -0.6628971,0 -1,-0.386464 -1,-0.658203 0,-0.271739 0.3371029,-0.658203 1,-0.658204 H 6.448 Z" />
   </g>
   <g>
      <g transform="translate(-0.01442308,-1.5144231)">
         <path
            d="M 12,2 C 6.48,2 2,6.48 2,12 2,17.52 6.48,22 12,22 17.52,22 22,17.52 22,12 22,6.48 17.52,2 12,2 Z m 0,18 C 7.59,20 4,16.41 4,12 4,7.59 7.59,4 12,4 c 4.41,0 8,3.59 8,8 0,4.41 -3.59,8 -8,8 z m 0.89,-8.9 c -1.78,-0.59 -2.64,-0.96 -2.64,-1.9 0,-1.02 1.11,-1.39 1.81,-1.39 1.31,0 1.79,0.99 1.9,1.34 L 15.54,8.48 C 15.39,8.04 14.72,6.57 12.88,6.25 V 5 h -1.75 v 1.26 c -2.6,0.56 -2.62,2.85 -2.62,2.96 0,2.27 2.25,2.91 3.35,3.31 1.58,0.56 2.28,1.07 2.28,2.03 0,1.13 -1.05,1.61 -1.98,1.61 -1.82,0 -2.34,-1.87 -2.4,-2.09 L 8.1,14.75 c 0.63,2.19 2.28,2.78 3.02,2.96 V 19 h 1.75 v -1.24 c 0.52,-0.09 3.02,-0.59 3.02,-3.22 0.01,-1.39 -0.6,-2.61 -3,-3.44 z" />
      </g>
   </g>
</svg>