<svg width="24" height="24" xmlns="http://www.w3.org/2000/svg"><path d="M10.383 2.67a1.153 1.153 0 00-1.297.988L6.885 19.955a1.153 1.153 0 00.988 1.297 1.153 1.153 0 001.297-.988L11.37 3.967a1.153 1.153 0 00-.988-1.297zM16.984 2.748a1.153 1.153 0 00-1.297.988l-2.2 16.297a1.153 1.153 0 00.988 1.297 1.153 1.153 0 001.296-.988l2.202-16.297a1.153 1.153 0 00-.989-1.297z"/><path d="M5.367 7.69a1.153 1.153 0 00-1.152 1.154 1.153 1.153 0 001.152 1.152h15.065a1.153 1.153 0 001.154-1.152 1.153 1.153 0 00-1.154-1.155zM4.424 14.004a1.153 1.153 0 00-1.153 1.152 1.153 1.153 0 001.153 1.155h15.064a1.153 1.153 0 001.155-1.155 1.153 1.153 0 00-1.155-1.152z"/></svg>